
<global>
amp_veltrack=0
ampeg_release=0.50
</global>

<group>
ampeg_attack=0.01
ampeg_release=0.25
group_label=Sustain_0-45
lpc_hicc1=42
lpc_locc1=0

<region>
hikey=A#1
hivel=127
lokey=A1
lovel=1
lpc=IC99QrTfC8PTyO1CvrytwphNkULIl0bCbd8gQn7KDMK4KttBZohFwSxTRkB9nRa/HjeLP1roZEAgkN3AzdrEvzRoA0HzKtrAO1l4QO/tmMCXMRNAP59tv01uFj8gf3Y/
lpc_rms=-25.30
pitch_keycenter=A#1
sample=Contrabassoon_fall_PP_A#2.opus
</region>

<region>
hikey=A#2
hivel=127
lokey=A2
lovel=1
lpc=cztAQkNvyMI+ea1CRkKLwtoYWEJJuwrC+Fa+QV5IY8HNqCdBcZe0wH8WHkC32VTAQvCqQHEOrsB/HBJBTJkkwRHyHkFAqo7AvfQRwIYTpEAKYRPBmey4QDu8n8B5uIdA
lpc_rms=-26.44
pitch_keycenter=A#2
sample=Contrabassoon_fall_PP_A#3.opus
</region>

<region>
hivel=127
key=C1
lovel=1
lpc=/kxkQ9lvCMQuF+VDLeKLw1VBYUNeF6LCMs2QQaX+HcKqTQRBN3N/QCjxFsCvycdBHXq7wXC/uEEUk1fBcqh6wbRje0HGA8LBKS/6QcY8vcCjYR7B/JOMQR5B5sHJs4BB
lpc_rms=-21.12
sample=Contrabassoon_fall_PP_C2.opus
</region>

<region>
hikey=C2
hivel=127
lokey=B1
lovel=1
lpc=z4KCQjR9EcOP8NNCtrpDwiPMBkIzQDnB7b0sQZj0g8FDSyNBS5kAv+wyCMCHxrI/iu5EwHZjSj97R0FAJNukwL2VaED1do7AVBmRQBv2AMCBnV1APj7TvBPQ5MBxbpdA
lpc_rms=-28.11
pitch_keycenter=C2
sample=Contrabassoon_fall_PP_C3.opus
</region>

<region>
hikey=C3
hivel=127
lokey=B2
lovel=1
lpc=dDr3QWqChsI4IVxCzVQBwiJnlkHBggbBuxOpQF2Yo8D2O8lAT9ZswKk1J0Bnei/A0BRQP4f1hT/wrhA/J+tRwO6FL0CkZue/7oa6P58t+r1JNYu/B5c+QGEyscCe1U1A
lpc_rms=-30.44
pitch_keycenter=C3
sample=Contrabassoon_fall_PP_C4.opus
</region>

<region>
hikey=D1
hivel=127
lokey=C#1
lovel=1
lpc=gVNuQhpzAcMDFthCyjuXwgpGYUKsRvrBUbu3QTtCm8GkZVNBcJg7wE6QBMFJWT5ByKq0wHgs9ED0wyPBi3G4QORzpL+R48o/NIq4wNgX6kBqcgLBRx9MQMGePj4gx0c/
lpc_rms=-23.85
pitch_keycenter=D1
sample=Contrabassoon_fall_PP_D2.opus
</region>

<region>
hikey=D2
hivel=127
lokey=C#2
lovel=1
lpc=SlueQqndOcNmDxpDC6afwgBBM0JAhU7Bee60QPnPa8BUqg7BOzSjQb8yqMFqE6dBmRziwSTvv0FGTyTBoisyQT4HesHjEjVBlGI1wcUgM0HrNd/A7jT7QExPRMFoF+RA
lpc_rms=-25.78
pitch_keycenter=D2
sample=Contrabassoon_fall_PP_D3.opus
</region>

<region>
hikey=D#4
hivel=127
lokey=C#3
lovel=1
lpc=Z8hyQq03AcPcTMRCxF9MwhtM5UHxyVHBJ7sdQTpP7MDUL+xArAKewPyumz9HNxVAEikbQPbDAcGLSTBBSLR3wdrEV0EojADB/kPVQAsbzsBUWKY/yBKEPziAN8DdGVRA
lpc_rms=-24.71
pitch_keycenter=D3
sample=Contrabassoon_fall_PP_D4.opus
</region>

<region>
hikey=E1
hivel=127
lokey=D#1
lovel=1
lpc=YnlcQrmz/cJHVu1CDwOxwqT6hEJ90yrCZNLqQeTTnMEtmxtBbF2Tv8CxJMCk1HJA3f5jP+RrLL74NZw9OcrKwDLxF0Ft6OPAofQXvn+4hkA0QUi/Awe0wP8fdkDChYQ+
lpc_rms=-30.70
pitch_keycenter=E1
sample=Contrabassoon_fall_PP_E2.opus
</region>

<region>
hikey=E2
hivel=127
lokey=D#2
lovel=1
lpc=FyR+QpIYD8NlxulCfICHwrK9GUKTnDDB5bCVQVdS8MHaG7pBNwhrwdVpBUET1WI/Gjtovx+kIj76CLTAnyXQQCGUuMCXm/BA88M6wWu0NUEzOevAq6EcQFJ6ub+X4vU/
lpc_rms=-27.18
pitch_keycenter=E2
sample=Contrabassoon_fall_PP_E3.opus
</region>

<region>
hikey=F#1
hivel=127
lokey=F1
lovel=1
lpc=Ck3GQtvVYcPTNjlDtmjrwq9Ox0KfxH7CfmMtQncEE8L/T8dBqKX4wK0AkD6X29hA56YgwZ8+kEC1qqhAEtk8wegAAkF5VqXAtvaQQFJG18DH+LI+mGY5QGEah0AO+VHA
lpc_rms=-23.52
pitch_keycenter=F#1
sample=Contrabassoon_fall_PP_F#2.opus
</region>

<region>
hikey=F#2
hivel=127
lokey=F2
lovel=1
lpc=MxvaQdvpT8KudihCaM4Lwiwf3EFDEKzBvWuJQUzsQMH8sAlBVYCfv4Zq5r+QyjlALVLpv8Hslj9WSDM/73CYv73WPj8yBFK/F+pVv793lj9FJ6m/3DFgvnlGIT+hNTA+
lpc_rms=-22.94
pitch_keycenter=F#2
sample=Contrabassoon_fall_PP_F#3.opus
</region>

<region>
hikey=G#1
hivel=127
lokey=G1
lovel=1
lpc=CH5BQhjlx8LpXI9C5jY+wjYNLUKPh8bBK4+rQWxFzMF0fLNBTQRSwWl6P0B/DwRB9TYkwRKXAUFi6bbAghauvy8KsEDGQq3ABqMpQBR/AsDs8bo/eMvsv1lWKkDr/EG/
lpc_rms=-27.43
pitch_keycenter=G#1
sample=Contrabassoon_fall_PP_G#2.opus
</region>

<region>
hikey=G#2
hivel=127
lokey=G2
lovel=1
lpc=bjC6QdRXI8Jpd95BeSe2wUP7fkHs/0HBHQ1hQdIOIcEJoxpB/NcOwbLUCUHKJgXBSO8LQWFBEsGO3CNBcyvGwKDBXD4UooU/g66iv5vO/D6oBZ0+Ib4mwLNM3D/JKM4+
lpc_rms=-26.74
pitch_keycenter=G#2
sample=Contrabassoon_fall_PP_G#3.opus
</region>
</group>

<group>
ampeg_attack=0.01
ampeg_release=0.25
group_label=Sustain_46-90
lpc_hicc1=84
lpc_locc1=43

<region>
hikey=A#1
hivel=127
lokey=A1
lovel=1
lpc=wNCqQsB+OsMpBQhD4LCpwtAvpkL+yjjCpnoaQo3rHsJstL9B5sEhwV3WJcCK8ZFAVsEfwDAeREC7BoO/DcPNwDRq0kAgfRFAOkDPvz4rw7+B47w/W2d9v6ZGocBbhJhA
lpc_rms=-24.53
pitch_keycenter=A#1
sample=Contrabassoon_fall_MF_A#2.opus
</region>

<region>
hikey=A#2
hivel=127
lokey=A2
lovel=1
lpc=1l8tQlJ2r8IhVoxCIWZlwo9CTUKFKRjC2YsDQgP94sEj1LVBDFEnwRjR0z/jgq1AOH4BwQ2cF0G03gjB9e+eP4TQIkDgHLLArG38QOTupcB3JCZA989JwCjStj67VMs/
lpc_rms=-21.49
pitch_keycenter=A#2
sample=Contrabassoon_fall_MF_A#3.opus
</region>

<region>
hivel=127
key=C1
lovel=1
lpc=pcYsQyjTzcNyUaRDcWcgw5Gw+UKnO3TC+mudQciPncFK2cxAz0FrwC9InUDwZ6FA+3ORwPuOlUC5waVAqsa+wWu9gUGklGbARpY0wQw9s0F2rnrBix5aQcyNeMEMT+tA
lpc_rms=-25.08
sample=Contrabassoon_fall_MF_C2.opus
</region>

<region>
hikey=C2
hivel=127
lokey=B1
lovel=1
lpc=8k+TQlzQKcOhVwdDSbaTwgDnVEIYdbbB7tRcQbq2dsEIx0JBLbt1wPkOa8AgvZ5AiQK/wMDtjb7fKqdAoYn5viJmV8AfIZY/YIdOwHUBzEAi73w+7lQRQDBVasFYohhB
lpc_rms=-27.93
pitch_keycenter=C2
sample=Contrabassoon_fall_MF_C3.opus
</region>

<region>
hikey=C3
hivel=127
lokey=B2
lovel=1
lpc=QOJIQjHw48KMaMZCyrWCwibzKEKlFKrBXiSEQddnVMG0n2JBghsowa0laUA6KAK/smklwOqbakDUFns+tQK5vtbzrsDQ3BRBA0g4waiBQUHjH0bBr2LjQO1k578eaoQ/
lpc_rms=-25.29
pitch_keycenter=C3
sample=Contrabassoon_fall_MF_C4.opus
</region>

<region>
hikey=D1
hivel=127
lokey=C#1
lovel=1
lpc=jOyiQh2zO8PA2ixD6f0JwwCw5UJ/QYvCUb5ZQsAsUMKDxRlC/MK6wRydMEGhxTrAjdwFQUv2P8EGKJJB7HvWwWLDykFEbp/B5F4LQUCvucDywtdAsQBqwMwrHEDDMje/
lpc_rms=-22.23
pitch_keycenter=D1
sample=Contrabassoon_fall_MF_D2.opus
</region>

<region>
hikey=D2
hivel=127
lokey=C#2
lovel=1
lpc=/71eQkyy7cLeN61C7L9Wwg2bGkL8eP3ArQNMQcuoXsF7KhhAzDMZwPgN27/VRcdA7479wEpsekBLB3xAZjuZwOsyiD8yOYM/rqtxP0TFQz8W3ovAmCtQQNtepsCENoRA
lpc_rms=-22.13
pitch_keycenter=D2
sample=Contrabassoon_fall_MF_D3.opus
</region>

<region>
hikey=D#4
hivel=127
lokey=C#3
lovel=1
lpc=LVJhQgI8/8JXFt9CAm6TwqokMUK3U4rBneBlQQVKUsEY7VRBSBoBwQG6Mr8Rg5g/klpUQNf/7sCUOwRBBXLVwEwDakCB6q89ZwGyPvobIcBIfB7AIm5IQDnLRb80458/
lpc_rms=-23.20
pitch_keycenter=D3
sample=Contrabassoon_fall_MF_D4.opus
</region>

<region>
hikey=E1
hivel=127
lokey=D#1
lovel=1
lpc=PJWHQj0jGsPkPQBD7RCgwlLgYkKhgszBe650QSjZKcHtKgo+aQLCQGtvIcFY7TBBfN5YwByr8ECd71LB1w7wP4n9cEAkD9O8GknWvzc7wUAF8zLBDhCNQO3fjD8r45s+
lpc_rms=-22.71
pitch_keycenter=E1
sample=Contrabassoon_fall_MF_E2.opus
</region>

<region>
hikey=E2
hivel=127
lokey=D#2
lovel=1
lpc=fgU7Qn/AzcJRrqtCsTJvwnJ2JELFn4PBCuJQQTVJHsEAaJJAZ7zyvj/3mb+rNB5AchCowPA/i0BbfgTAe/Pwvl6a8b5dNvI/ESV4v93aiT+48QjAZF4PQGIZEsCrIr4/
lpc_rms=-23.50
pitch_keycenter=E2
sample=Contrabassoon_fall_MF_E3.opus
</region>

<region>
hikey=F#1
hivel=127
lokey=F1
lovel=1
lpc=tQe9QmeLXMPBpEFDD5kKw5Wt9kJi77DCE8mSQo69icLcbGhCIOIzwnE8AEI7hJnBDhJBQex73MDuKw5A+gNkwJETZUAwKs4/LGIowCqIo79gNnO/KTVDQKy2hcBplURA
lpc_rms=-21.18
pitch_keycenter=F#1
sample=Contrabassoon_fall_MF_F#2.opus
</region>

<region>
hikey=F#2
hivel=127
lokey=F2
lovel=1
lpc=oLBZQivR8MKLwMlCN/CGwoNVMEJ3jZbBSZx0QVynbsFYYY5BbLFBweQXY0CP8QLAQ0emP522acAFctFAY9HdwLb7nj93ddNAfagkwXwhBEGk3ZPAzbsLQLiQWb5c7k2+
lpc_rms=-21.52
pitch_keycenter=F#2
sample=Contrabassoon_fall_MF_F#3.opus
</region>

<region>
hikey=G#1
hivel=127
lokey=G1
lovel=1
lpc=ujaSQh66KMMNaAFDL5JzwlYcP0IDeuTBWGiSQa7riMFWsDtBzJu3wEJidz+X/Rs/57iwP5GlWsASsJlAqMHtwCCq6kDgBfS/aSaZwMjlsEAoorHAgpYEQSTb7cBbRDBA
lpc_rms=-25.99
pitch_keycenter=G#1
sample=Contrabassoon_fall_MF_G#2.opus
</region>

<region>
hikey=G#2
hivel=127
lokey=G2
lovel=1
lpc=WS1KQuj/28Isca1CYdJpwun3PULf67/BzpmFQZktXcGYexJB2wT8wNl9GEF2tN7AKm9vP0o3v7+BFS9Bdu1twZP1KkD3JcRAXSyhwJZpEEAK6QdAl+whwO4d4r+aavA/
lpc_rms=-24.13
pitch_keycenter=G#2
sample=Contrabassoon_fall_MF_G#3.opus
</region>
</group>

<group>
ampeg_attack=0.01
ampeg_release=0.25
group_label=Sustain_91-127
lpc_hicc1=127
lpc_locc1=85

<region>
hikey=A#1
hivel=127
lokey=A1
lovel=1
lpc=+f12QlqvA8Oqj7tC6JFowohKXULB7+/Brl2+QaPelsFkhiRBmpY+wfGGDEHtkBHBqDxjQfXpR8F4vRRBSJmVwCtn4j67Nb2+9SpcwCMszUA/G6jA+5I4QFt67b85P7c/
lpc_rms=-22.47
pitch_keycenter=A#1
sample=Contrabassoon_fall_FF_A#2.opus
</region>

<region>
hikey=A#2
hivel=127
lokey=A2
lovel=1
lpc=xa5kQrsiAcOrteNCSeCjwujKfEIuOTDCjXggQhNL+cEGItVBaqyowT4gg0HPXJ3BnHxyQbPhB8HQOP5An2v9wEudDEEYuSrB2GwoQVwVNMG52RlB5R+ywDKWHkBpgjW+
lpc_rms=-19.77
pitch_keycenter=A#2
sample=Contrabassoon_fall_FF_A#3.opus
</region>

<region>
hivel=127
key=C1
lovel=1
lpc=Ud2JQq8lJcNBlxdDZGnAwk48dULU9AvCBxAIQgWxw8H8/fVAZSQwwVKAIkG9V/0/+VKnv0KkB8EIvDxBMFmRwGt9AL9NWbO/MJSivc0QEkBfTWbAUn6uQOVn0cAe5G1A
lpc_rms=-17.82
sample=Contrabassoon_fall_FF_C2.opus
</region>

<region>
hikey=C2
hivel=127
lokey=B1
lovel=1
lpc=sas/Qi/k6cJBBeFCGhGlwqFHgUJC9RPCaOeJQSQyrcCTgkRABKPYv29t7cAlVIlAtifBQHeJ/cCrzD1BTR1/wVINVkHjv9jAUeBfPvWEEkD2dpXAJiK5QDsXpMBbRCpA
lpc_rms=-21.19
pitch_keycenter=C2
sample=Contrabassoon_fall_FF_C3.opus
</region>

<region>
hikey=C3
hivel=127
lokey=B2
lovel=1
lpc=elMGQnpRksJdQX5C4LA1wtdU80H9DZPBWISEQSK9DsGvL8dAAqLHwKvgI0DWORfANC21QKyoocDkGRpAe2m8v2CV7L4vo6NAWaO0wAvi3z9IVl+/mhfwvsqTtb7VbbI/
lpc_rms=-22.94
pitch_keycenter=C3
sample=Contrabassoon_fall_FF_C4.opus
</region>

<region>
hikey=D1
hivel=127
lokey=C#1
lovel=1
lpc=7yUhQop4ssKbephCbO9Owt3TIkIapBHCWrIQQif4kMGUN6Y/ZmwgQL5H9b9ohJo//9PhPZl3pMB2ggtBzgrUwLEGyUBa/dXA16GDQI/SNsB5IsI+FkDSPlFyrz+QMDW/
lpc_rms=-22.36
pitch_keycenter=D1
sample=Contrabassoon_fall_FF_D2.opus
</region>

<region>
hikey=D2
hivel=127
lokey=C#2
lovel=1
lpc=IDxIQncb3ML8uKdCGts7wscF3EGhG72/kwG1QD2QKME8zbJAsdX7wEjODkGX4QTBs1PJQOUaycDFLQFBxCa3wKZvZEAU+lPAePm9P6St2D/CgeS/iUi/v7wM8r0fQd0/
lpc_rms=-21.45
pitch_keycenter=D2
sample=Contrabassoon_fall_FF_D3.opus
</region>

<region>
hikey=D#4
hivel=127
lokey=C#3
lovel=1
lpc=ozwpQlk6q8Ls6I5CwNFbwr1UBkLfhTXBI+6OQAjhkz9KMKk+sa6qvqoiA8DbKQVAG5QgQC6KoMCIOqlAJ5sMwCiFi78bQJm+Xa4AQPz8/7/MIivAeL5/QPITrcAutpNA
lpc_rms=-21.88
pitch_keycenter=D3
sample=Contrabassoon_fall_FF_D4.opus
</region>

<region>
hikey=E1
hivel=127
lokey=D#1
lovel=1
lpc=0fUuQpq81MLz7tRCF2ihwubRdEKbH0vC2/taQjUbNcLwddVBOcNSwZK4cEBP5IdAUeAKwSUW5ECAH9PAN88BQYpPmsAeIPY/r76SwO+ajUC72ZW/hLHmvtO1UD9h/56+
lpc_rms=-21.64
pitch_keycenter=E1
sample=Contrabassoon_fall_FF_E2.opus
</region>

<region>
hikey=E2
hivel=127
lokey=D#2
lovel=1
lpc=egI4Ql4a2MKLqcNCNAaHwnsnMkKL02LBC3rCQDvI18A4U5BA1HitvqFqIsDWuas/JxwfPo7otMAHcTBB700cwemUeED7SL+/ow9bQJ3tHb+PcEjAc3BRQCY+kMDKADpA
lpc_rms=-22.00
pitch_keycenter=E2
sample=Contrabassoon_fall_FF_E3.opus
</region>

<region>
hikey=F#1
hivel=127
lokey=F1
lovel=1
lpc=4TmCQgIZF8NNEQ5D4qvZwmI1nkI73lHCtOxeQjoZJ8IVQ7VBrNekwVn+i0FwmirB21ebQLNyLsBcc8BAmtK2wFQGqUA7CmTAW/wvwMYICEASwyvApsuEQOSjoL+qexU9
lpc_rms=-19.08
pitch_keycenter=F#1
sample=Contrabassoon_fall_FF_F#2.opus
</region>

<region>
hikey=F#2
hivel=127
lokey=F2
lovel=1
lpc=ZdkxQhyrvsLSxJFCHrU7wt6gFkLi76XBTMyDQV2kOcETXPRAx+O4wGFBU0DxhGa+4NabvzqCJMBtMcxAlB8awcdmD0EaJNvAwbzTQFCCmsBNtF9AyB9DwJNysj972xG+
lpc_rms=-22.46
pitch_keycenter=F#2
sample=Contrabassoon_fall_FF_F#3.opus
</region>

<region>
hikey=G#1
hivel=127
lokey=G1
lovel=1
lpc=7KI5QrHYy8LvzqJC7RRdwhy1LkLZD6jBbDmcQa+Bd8ETOq9AKK3KwDOVhz+Tv8RAOAg1wGxLhcAtmCBBdcYawcneAkGNNwDBdTGnQBsYj8AqX6g/k20FQEUO6r9gAF8/
lpc_rms=-21.62
pitch_keycenter=G#1
sample=Contrabassoon_fall_FF_G#2.opus
</region>

<region>
hikey=G#2
hivel=127
lokey=G2
lovel=1
lpc=GdwaQl9dq8KWeptCoCFxwv7CL0JVMs7B/KyXQSJsZcG0vkJBrZXHwDgYsUBA3LLA2rtgQIgV0MDtIzlBIFJ0wTxCYEEXQCzBIc7fQD3zS8BdDEs/xBOhP6xARsCWbus/
lpc_rms=-22.25
pitch_keycenter=G#2
sample=Contrabassoon_fall_FF_G#3.opus
</region>
</group>

<group>
ampeg_attack=0.05
ampeg_release=5.0
group_label=Release_0-45
lpc_hicc1=42
lpc_locc1=0
trigger=release

<region>
hikey=A#1
hivel=127
lokey=A1
lovel=1
lpc=IC99QrTfC8PTyO1CvrytwphNkULIl0bCbd8gQn7KDMK4KttBZohFwSxTRkB9nRa/HjeLP1roZEAgkN3AzdrEvzRoA0HzKtrAO1l4QO/tmMCXMRNAP59tv01uFj8gf3Y/
lpc_rms=-25.30
offset=44824
pitch_keycenter=A#1
sample=Contrabassoon_fall_PP_A#2.opus
</region>

<region>
hikey=A#2
hivel=127
lokey=A2
lovel=1
lpc=cztAQkNvyMI+ea1CRkKLwtoYWEJJuwrC+Fa+QV5IY8HNqCdBcZe0wH8WHkC32VTAQvCqQHEOrsB/HBJBTJkkwRHyHkFAqo7AvfQRwIYTpEAKYRPBmey4QDu8n8B5uIdA
lpc_rms=-26.44
offset=41865
pitch_keycenter=A#2
sample=Contrabassoon_fall_PP_A#3.opus
</region>

<region>
hivel=127
key=C1
lovel=1
lpc=/kxkQ9lvCMQuF+VDLeKLw1VBYUNeF6LCMs2QQaX+HcKqTQRBN3N/QCjxFsCvycdBHXq7wXC/uEEUk1fBcqh6wbRje0HGA8LBKS/6QcY8vcCjYR7B/JOMQR5B5sHJs4BB
lpc_rms=-21.12
offset=26366
sample=Contrabassoon_fall_PP_C2.opus
</region>

<region>
hikey=C2
hivel=127
lokey=B1
lovel=1
lpc=z4KCQjR9EcOP8NNCtrpDwiPMBkIzQDnB7b0sQZj0g8FDSyNBS5kAv+wyCMCHxrI/iu5EwHZjSj97R0FAJNukwL2VaED1do7AVBmRQBv2AMCBnV1APj7TvBPQ5MBxbpdA
lpc_rms=-28.11
offset=33736
pitch_keycenter=C2
sample=Contrabassoon_fall_PP_C3.opus
</region>

<region>
hikey=C3
hivel=127
lokey=B2
lovel=1
lpc=dDr3QWqChsI4IVxCzVQBwiJnlkHBggbBuxOpQF2Yo8D2O8lAT9ZswKk1J0Bnei/A0BRQP4f1hT/wrhA/J+tRwO6FL0CkZue/7oa6P58t+r1JNYu/B5c+QGEyscCe1U1A
lpc_rms=-30.44
offset=39256
pitch_keycenter=C3
sample=Contrabassoon_fall_PP_C4.opus
</region>

<region>
hikey=D1
hivel=127
lokey=C#1
lovel=1
lpc=gVNuQhpzAcMDFthCyjuXwgpGYUKsRvrBUbu3QTtCm8GkZVNBcJg7wE6QBMFJWT5ByKq0wHgs9ED0wyPBi3G4QORzpL+R48o/NIq4wNgX6kBqcgLBRx9MQMGePj4gx0c/
lpc_rms=-23.85
offset=34113
pitch_keycenter=D1
sample=Contrabassoon_fall_PP_D2.opus
</region>

<region>
hikey=D2
hivel=127
lokey=C#2
lovel=1
lpc=SlueQqndOcNmDxpDC6afwgBBM0JAhU7Bee60QPnPa8BUqg7BOzSjQb8yqMFqE6dBmRziwSTvv0FGTyTBoisyQT4HesHjEjVBlGI1wcUgM0HrNd/A7jT7QExPRMFoF+RA
lpc_rms=-25.78
offset=46000
pitch_keycenter=D2
sample=Contrabassoon_fall_PP_D3.opus
</region>

<region>
hikey=D#4
hivel=127
lokey=C#3
lovel=1
lpc=Z8hyQq03AcPcTMRCxF9MwhtM5UHxyVHBJ7sdQTpP7MDUL+xArAKewPyumz9HNxVAEikbQPbDAcGLSTBBSLR3wdrEV0EojADB/kPVQAsbzsBUWKY/yBKEPziAN8DdGVRA
lpc_rms=-24.71
offset=41686
pitch_keycenter=D3
sample=Contrabassoon_fall_PP_D4.opus
</region>

<region>
end=75609
hikey=E1
hivel=127
lokey=D#1
lovel=1
lpc=YnlcQrmz/cJHVu1CDwOxwqT6hEJ90yrCZNLqQeTTnMEtmxtBbF2Tv8CxJMCk1HJA3f5jP+RrLL74NZw9OcrKwDLxF0Ft6OPAofQXvn+4hkA0QUi/Awe0wP8fdkDChYQ+
lpc_rms=-30.70
offset=48000
pitch_keycenter=E1
sample=Contrabassoon_fall_PP_E2.opus
</region>

<region>
hikey=E2
hivel=127
lokey=D#2
lovel=1
lpc=FyR+QpIYD8NlxulCfICHwrK9GUKTnDDB5bCVQVdS8MHaG7pBNwhrwdVpBUET1WI/Gjtovx+kIj76CLTAnyXQQCGUuMCXm/BA88M6wWu0NUEzOevAq6EcQFJ6ub+X4vU/
lpc_rms=-27.18
offset=32098
pitch_keycenter=E2
sample=Contrabassoon_fall_PP_E3.opus
</region>

<region>
hikey=F#1
hivel=127
lokey=F1
lovel=1
lpc=Ck3GQtvVYcPTNjlDtmjrwq9Ox0KfxH7CfmMtQncEE8L/T8dBqKX4wK0AkD6X29hA56YgwZ8+kEC1qqhAEtk8wegAAkF5VqXAtvaQQFJG18DH+LI+mGY5QGEah0AO+VHA
lpc_rms=-23.52
offset=48000
pitch_keycenter=F#1
sample=Contrabassoon_fall_PP_F#2.opus
</region>

<region>
hikey=F#2
hivel=127
lokey=F2
lovel=1
lpc=MxvaQdvpT8KudihCaM4Lwiwf3EFDEKzBvWuJQUzsQMH8sAlBVYCfv4Zq5r+QyjlALVLpv8Hslj9WSDM/73CYv73WPj8yBFK/F+pVv793lj9FJ6m/3DFgvnlGIT+hNTA+
lpc_rms=-22.94
offset=49028
pitch_keycenter=F#2
sample=Contrabassoon_fall_PP_F#3.opus
</region>

<region>
hikey=G#1
hivel=127
lokey=G1
lovel=1
lpc=CH5BQhjlx8LpXI9C5jY+wjYNLUKPh8bBK4+rQWxFzMF0fLNBTQRSwWl6P0B/DwRB9TYkwRKXAUFi6bbAghauvy8KsEDGQq3ABqMpQBR/AsDs8bo/eMvsv1lWKkDr/EG/
lpc_rms=-27.43
offset=48000
pitch_keycenter=G#1
sample=Contrabassoon_fall_PP_G#2.opus
</region>

<region>
hikey=G#2
hivel=127
lokey=G2
lovel=1
lpc=bjC6QdRXI8Jpd95BeSe2wUP7fkHs/0HBHQ1hQdIOIcEJoxpB/NcOwbLUCUHKJgXBSO8LQWFBEsGO3CNBcyvGwKDBXD4UooU/g66iv5vO/D6oBZ0+Ib4mwLNM3D/JKM4+
lpc_rms=-26.74
offset=39309
pitch_keycenter=G#2
sample=Contrabassoon_fall_PP_G#3.opus
</region>
</group>

<group>
ampeg_attack=0.05
ampeg_release=5.0
group_label=Release_46-90
lpc_hicc1=84
lpc_locc1=43
trigger=release

<region>
hikey=A#1
hivel=127
lokey=A1
lovel=1
lpc=wNCqQsB+OsMpBQhD4LCpwtAvpkL+yjjCpnoaQo3rHsJstL9B5sEhwV3WJcCK8ZFAVsEfwDAeREC7BoO/DcPNwDRq0kAgfRFAOkDPvz4rw7+B47w/W2d9v6ZGocBbhJhA
lpc_rms=-24.53
offset=48000
pitch_keycenter=A#1
sample=Contrabassoon_fall_MF_A#2.opus
</region>

<region>
hikey=A#2
hivel=127
lokey=A2
lovel=1
lpc=1l8tQlJ2r8IhVoxCIWZlwo9CTUKFKRjC2YsDQgP94sEj1LVBDFEnwRjR0z/jgq1AOH4BwQ2cF0G03gjB9e+eP4TQIkDgHLLArG38QOTupcB3JCZA989JwCjStj67VMs/
lpc_rms=-21.49
offset=48000
pitch_keycenter=A#2
sample=Contrabassoon_fall_MF_A#3.opus
</region>

<region>
end=60232
hivel=127
key=C1
lovel=1
lpc=pcYsQyjTzcNyUaRDcWcgw5Gw+UKnO3TC+mudQciPncFK2cxAz0FrwC9InUDwZ6FA+3ORwPuOlUC5waVAqsa+wWu9gUGklGbARpY0wQw9s0F2rnrBix5aQcyNeMEMT+tA
lpc_rms=-25.08
offset=35003
sample=Contrabassoon_fall_MF_C2.opus
</region>

<region>
end=86179
hikey=C2
hivel=127
lokey=B1
lovel=1
lpc=8k+TQlzQKcOhVwdDSbaTwgDnVEIYdbbB7tRcQbq2dsEIx0JBLbt1wPkOa8AgvZ5AiQK/wMDtjb7fKqdAoYn5viJmV8AfIZY/YIdOwHUBzEAi73w+7lQRQDBVasFYohhB
lpc_rms=-27.93
offset=48000
pitch_keycenter=C2
sample=Contrabassoon_fall_MF_C3.opus
</region>

<region>
hikey=C3
hivel=127
lokey=B2
lovel=1
lpc=QOJIQjHw48KMaMZCyrWCwibzKEKlFKrBXiSEQddnVMG0n2JBghsowa0laUA6KAK/smklwOqbakDUFns+tQK5vtbzrsDQ3BRBA0g4waiBQUHjH0bBr2LjQO1k578eaoQ/
lpc_rms=-25.29
offset=48000
pitch_keycenter=C3
sample=Contrabassoon_fall_MF_C4.opus
</region>

<region>
hikey=D1
hivel=127
lokey=C#1
lovel=1
lpc=jOyiQh2zO8PA2ixD6f0JwwCw5UJ/QYvCUb5ZQsAsUMKDxRlC/MK6wRydMEGhxTrAjdwFQUv2P8EGKJJB7HvWwWLDykFEbp/B5F4LQUCvucDywtdAsQBqwMwrHEDDMje/
lpc_rms=-22.23
offset=41745
pitch_keycenter=D1
sample=Contrabassoon_fall_MF_D2.opus
</region>

<region>
hikey=D2
hivel=127
lokey=C#2
lovel=1
lpc=/71eQkyy7cLeN61C7L9Wwg2bGkL8eP3ArQNMQcuoXsF7KhhAzDMZwPgN27/VRcdA7479wEpsekBLB3xAZjuZwOsyiD8yOYM/rqtxP0TFQz8W3ovAmCtQQNtepsCENoRA
lpc_rms=-22.13
offset=48000
pitch_keycenter=D2
sample=Contrabassoon_fall_MF_D3.opus
</region>

<region>
hikey=D#4
hivel=127
lokey=C#3
lovel=1
lpc=LVJhQgI8/8JXFt9CAm6TwqokMUK3U4rBneBlQQVKUsEY7VRBSBoBwQG6Mr8Rg5g/klpUQNf/7sCUOwRBBXLVwEwDakCB6q89ZwGyPvobIcBIfB7AIm5IQDnLRb80458/
lpc_rms=-23.20
offset=48000
pitch_keycenter=D3
sample=Contrabassoon_fall_MF_D4.opus
</region>

<region>
hikey=E1
hivel=127
lokey=D#1
lovel=1
lpc=PJWHQj0jGsPkPQBD7RCgwlLgYkKhgszBe650QSjZKcHtKgo+aQLCQGtvIcFY7TBBfN5YwByr8ECd71LB1w7wP4n9cEAkD9O8GknWvzc7wUAF8zLBDhCNQO3fjD8r45s+
lpc_rms=-22.71
offset=48000
pitch_keycenter=E1
sample=Contrabassoon_fall_MF_E2.opus
</region>

<region>
hikey=E2
hivel=127
lokey=D#2
lovel=1
lpc=fgU7Qn/AzcJRrqtCsTJvwnJ2JELFn4PBCuJQQTVJHsEAaJJAZ7zyvj/3mb+rNB5AchCowPA/i0BbfgTAe/Pwvl6a8b5dNvI/ESV4v93aiT+48QjAZF4PQGIZEsCrIr4/
lpc_rms=-23.50
offset=48000
pitch_keycenter=E2
sample=Contrabassoon_fall_MF_E3.opus
</region>

<region>
hikey=F#1
hivel=127
lokey=F1
lovel=1
lpc=tQe9QmeLXMPBpEFDD5kKw5Wt9kJi77DCE8mSQo69icLcbGhCIOIzwnE8AEI7hJnBDhJBQex73MDuKw5A+gNkwJETZUAwKs4/LGIowCqIo79gNnO/KTVDQKy2hcBplURA
lpc_rms=-21.18
offset=48000
pitch_keycenter=F#1
sample=Contrabassoon_fall_MF_F#2.opus
</region>

<region>
hikey=F#2
hivel=127
lokey=F2
lovel=1
lpc=oLBZQivR8MKLwMlCN/CGwoNVMEJ3jZbBSZx0QVynbsFYYY5BbLFBweQXY0CP8QLAQ0emP522acAFctFAY9HdwLb7nj93ddNAfagkwXwhBEGk3ZPAzbsLQLiQWb5c7k2+
lpc_rms=-21.52
offset=48000
pitch_keycenter=F#2
sample=Contrabassoon_fall_MF_F#3.opus
</region>

<region>
hikey=G#1
hivel=127
lokey=G1
lovel=1
lpc=ujaSQh66KMMNaAFDL5JzwlYcP0IDeuTBWGiSQa7riMFWsDtBzJu3wEJidz+X/Rs/57iwP5GlWsASsJlAqMHtwCCq6kDgBfS/aSaZwMjlsEAoorHAgpYEQSTb7cBbRDBA
lpc_rms=-25.99
offset=48000
pitch_keycenter=G#1
sample=Contrabassoon_fall_MF_G#2.opus
</region>

<region>
hikey=G#2
hivel=127
lokey=G2
lovel=1
lpc=WS1KQuj/28Isca1CYdJpwun3PULf67/BzpmFQZktXcGYexJB2wT8wNl9GEF2tN7AKm9vP0o3v7+BFS9Bdu1twZP1KkD3JcRAXSyhwJZpEEAK6QdAl+whwO4d4r+aavA/
lpc_rms=-24.13
offset=48000
pitch_keycenter=G#2
sample=Contrabassoon_fall_MF_G#3.opus
</region>
</group>

<group>
ampeg_attack=0.05
ampeg_release=5.0
group_label=Release_91-127
lpc_hicc1=127
lpc_locc1=85
trigger=release

<region>
hikey=A#1
hivel=127
lokey=A1
lovel=1
lpc=+f12QlqvA8Oqj7tC6JFowohKXULB7+/Brl2+QaPelsFkhiRBmpY+wfGGDEHtkBHBqDxjQfXpR8F4vRRBSJmVwCtn4j67Nb2+9SpcwCMszUA/G6jA+5I4QFt67b85P7c/
lpc_rms=-22.47
offset=48000
pitch_keycenter=A#1
sample=Contrabassoon_fall_FF_A#2.opus
</region>

<region>
hikey=A#2
hivel=127
lokey=A2
lovel=1
lpc=xa5kQrsiAcOrteNCSeCjwujKfEIuOTDCjXggQhNL+cEGItVBaqyowT4gg0HPXJ3BnHxyQbPhB8HQOP5An2v9wEudDEEYuSrB2GwoQVwVNMG52RlB5R+ywDKWHkBpgjW+
lpc_rms=-19.77
offset=43051
pitch_keycenter=A#2
sample=Contrabassoon_fall_FF_A#3.opus
</region>

<region>
hivel=127
key=C1
lovel=1
lpc=Ud2JQq8lJcNBlxdDZGnAwk48dULU9AvCBxAIQgWxw8H8/fVAZSQwwVKAIkG9V/0/+VKnv0KkB8EIvDxBMFmRwGt9AL9NWbO/MJSivc0QEkBfTWbAUn6uQOVn0cAe5G1A
lpc_rms=-17.82
offset=48000
sample=Contrabassoon_fall_FF_C2.opus
</region>

<region>
hikey=C2
hivel=127
lokey=B1
lovel=1
lpc=sas/Qi/k6cJBBeFCGhGlwqFHgUJC9RPCaOeJQSQyrcCTgkRABKPYv29t7cAlVIlAtifBQHeJ/cCrzD1BTR1/wVINVkHjv9jAUeBfPvWEEkD2dpXAJiK5QDsXpMBbRCpA
lpc_rms=-21.19
offset=57734
pitch_keycenter=C2
sample=Contrabassoon_fall_FF_C3.opus
</region>

<region>
hikey=C3
hivel=127
lokey=B2
lovel=1
lpc=elMGQnpRksJdQX5C4LA1wtdU80H9DZPBWISEQSK9DsGvL8dAAqLHwKvgI0DWORfANC21QKyoocDkGRpAe2m8v2CV7L4vo6NAWaO0wAvi3z9IVl+/mhfwvsqTtb7VbbI/
lpc_rms=-22.94
offset=45450
pitch_keycenter=C3
sample=Contrabassoon_fall_FF_C4.opus
</region>

<region>
hikey=D1
hivel=127
lokey=C#1
lovel=1
lpc=7yUhQop4ssKbephCbO9Owt3TIkIapBHCWrIQQif4kMGUN6Y/ZmwgQL5H9b9ohJo//9PhPZl3pMB2ggtBzgrUwLEGyUBa/dXA16GDQI/SNsB5IsI+FkDSPlFyrz+QMDW/
lpc_rms=-22.36
offset=31709
pitch_keycenter=D1
sample=Contrabassoon_fall_FF_D2.opus
</region>

<region>
hikey=D2
hivel=127
lokey=C#2
lovel=1
lpc=IDxIQncb3ML8uKdCGts7wscF3EGhG72/kwG1QD2QKME8zbJAsdX7wEjODkGX4QTBs1PJQOUaycDFLQFBxCa3wKZvZEAU+lPAePm9P6St2D/CgeS/iUi/v7wM8r0fQd0/
lpc_rms=-21.45
offset=57665
pitch_keycenter=D2
sample=Contrabassoon_fall_FF_D3.opus
</region>

<region>
hikey=D#4
hivel=127
lokey=C#3
lovel=1
lpc=ozwpQlk6q8Ls6I5CwNFbwr1UBkLfhTXBI+6OQAjhkz9KMKk+sa6qvqoiA8DbKQVAG5QgQC6KoMCIOqlAJ5sMwCiFi78bQJm+Xa4AQPz8/7/MIivAeL5/QPITrcAutpNA
lpc_rms=-21.88
offset=46336
pitch_keycenter=D3
sample=Contrabassoon_fall_FF_D4.opus
</region>

<region>
hikey=E1
hivel=127
lokey=D#1
lovel=1
lpc=0fUuQpq81MLz7tRCF2ihwubRdEKbH0vC2/taQjUbNcLwddVBOcNSwZK4cEBP5IdAUeAKwSUW5ECAH9PAN88BQYpPmsAeIPY/r76SwO+ajUC72ZW/hLHmvtO1UD9h/56+
lpc_rms=-21.64
offset=43356
pitch_keycenter=E1
sample=Contrabassoon_fall_FF_E2.opus
</region>

<region>
hikey=E2
hivel=127
lokey=D#2
lovel=1
lpc=egI4Ql4a2MKLqcNCNAaHwnsnMkKL02LBC3rCQDvI18A4U5BA1HitvqFqIsDWuas/JxwfPo7otMAHcTBB700cwemUeED7SL+/ow9bQJ3tHb+PcEjAc3BRQCY+kMDKADpA
lpc_rms=-22.00
offset=44154
pitch_keycenter=E2
sample=Contrabassoon_fall_FF_E3.opus
</region>

<region>
hikey=F#1
hivel=127
lokey=F1
lovel=1
lpc=4TmCQgIZF8NNEQ5D4qvZwmI1nkI73lHCtOxeQjoZJ8IVQ7VBrNekwVn+i0FwmirB21ebQLNyLsBcc8BAmtK2wFQGqUA7CmTAW/wvwMYICEASwyvApsuEQOSjoL+qexU9
lpc_rms=-19.08
offset=48000
pitch_keycenter=F#1
sample=Contrabassoon_fall_FF_F#2.opus
</region>

<region>
hikey=F#2
hivel=127
lokey=F2
lovel=1
lpc=ZdkxQhyrvsLSxJFCHrU7wt6gFkLi76XBTMyDQV2kOcETXPRAx+O4wGFBU0DxhGa+4NabvzqCJMBtMcxAlB8awcdmD0EaJNvAwbzTQFCCmsBNtF9AyB9DwJNysj972xG+
lpc_rms=-22.46
offset=48000
pitch_keycenter=F#2
sample=Contrabassoon_fall_FF_F#3.opus
</region>

<region>
hikey=G#1
hivel=127
lokey=G1
lovel=1
lpc=7KI5QrHYy8LvzqJC7RRdwhy1LkLZD6jBbDmcQa+Bd8ETOq9AKK3KwDOVhz+Tv8RAOAg1wGxLhcAtmCBBdcYawcneAkGNNwDBdTGnQBsYj8AqX6g/k20FQEUO6r9gAF8/
lpc_rms=-21.62
offset=56885
pitch_keycenter=G#1
sample=Contrabassoon_fall_FF_G#2.opus
</region>

<region>
hikey=G#2
hivel=127
lokey=G2
lovel=1
lpc=GdwaQl9dq8KWeptCoCFxwv7CL0JVMs7B/KyXQSJsZcG0vkJBrZXHwDgYsUBA3LLA2rtgQIgV0MDtIzlBIFJ0wTxCYEEXQCzBIc7fQD3zS8BdDEs/xBOhP6xARsCWbus/
lpc_rms=-22.25
offset=48000
pitch_keycenter=G#2
sample=Contrabassoon_fall_FF_G#3.opus
</region>
</group>